<svg width="512" height="512" viewBox="0 0 512 512" fill="none" xmlns="http://www.w3.org/2000/svg">
<path d="M360.156 33.4768C368.375 26.6582 380.503 27.7608 387.319 35.8828C388.322 37.0861 399.25 50.421 407.971 69.8738C410.477 75.489 418.193 76.1907 421.701 71.0768C431.324 56.9386 437.841 47.2122 438.042 46.9114C443.956 38.088 455.985 35.6812 464.805 41.5971C473.626 47.5131 476.031 59.546 470.118 68.37C469.416 69.3727 463.603 78.0974 455.082 90.6315C450.672 97.2495 455.884 106.074 463.903 105.272C473.422 104.37 479.635 104.67 480.541 104.67C491.167 105.272 499.387 114.296 498.986 124.725C498.484 135.353 489.464 143.574 478.839 143.073C478.038 143.073 435.737 142.273 404.763 169.948C401.956 172.455 399.649 174.762 397.845 179.073C394.538 186.794 395.04 195.717 398.948 203.136C403.058 210.857 406.165 219.282 408.371 228.005C418.495 268.917 403.86 310.33 373.989 337.103C365.769 344.423 363.364 356.254 367.474 366.381L391.931 426.146C393.335 429.554 396.041 430.857 397.544 431.358C398.848 431.86 401.355 432.361 404.162 431.057L416.69 420.63C417.592 419.928 418.494 419.125 419.396 418.423L426.214 412.808C434.634 405.89 447.062 407.193 453.778 415.815C460.293 424.138 458.388 436.372 450.269 443.09L441.448 450.411C436.336 454.722 430.122 460.237 424.509 465.25C419.899 469.461 415.889 473.072 412.983 475.478C407.169 480.391 399.851 483 392.433 483C384.314 483 376.094 479.89 369.278 473.172C366.07 469.963 363.863 465.952 362.36 461.641C352.837 433.865 332.89 383.93 331.186 379.518C327.577 370.594 318.457 365.078 308.935 366.08C305.928 366.381 302.82 366.581 299.813 366.682C299.211 366.782 295.601 366.783 290.89 366.582C282.169 366.182 273.951 370.995 270.142 378.916L229.443 462.844C225.334 471.066 218.719 476.983 210.8 479.49C207.994 480.393 205.187 480.793 202.28 480.793C197.769 480.793 193.358 479.689 189.148 477.584L188.348 477.184L137.926 448.305C128.504 442.891 125.398 430.758 131.111 421.433C136.624 412.409 148.753 410 157.874 415.214L183.435 428.952C186.543 430.657 190.251 431.459 193.76 430.657C198.07 429.755 201.577 426.946 203.582 423.136L232.853 365.981C236.662 358.46 234.756 349.134 227.94 344.02C224.432 341.313 221.025 338.506 217.817 335.398C207.192 325.17 208.997 306.821 223.632 299.401C231.851 295.29 241.674 297.194 248.39 303.611C265.631 320.156 290.09 326.374 313.946 320.558C351.335 311.333 374.491 274.631 365.67 238.733C361.46 221.487 350.433 206.947 334.796 197.822C318.859 188.497 300.113 185.891 281.87 190.403C245.685 199.327 222.628 233.921 229.443 269.016C231.749 280.948 223.931 292.58 212.003 294.886C200.074 297.193 188.447 289.372 186.141 277.44C185.64 275.033 185.239 272.625 184.939 270.219C183.936 262.097 177.52 255.882 169.401 254.679C161.082 253.375 153.464 251.57 146.347 249.163C135.622 245.654 123.893 246.455 114.07 251.87C105.048 256.884 93.3204 264.506 79.0865 276.138C70.9672 282.855 58.6378 282.453 51.7216 274.532C44.5048 266.209 45.6064 253.775 53.9254 246.857C58.6366 242.946 63.1501 239.437 67.4604 236.228C72.2706 232.618 70.1655 225.197 64.2525 224.595C45.3119 222.69 33.6841 223.993 33.4782 223.993C22.9535 225.197 13.3296 217.678 12.1263 207.049C10.9235 196.52 18.4425 186.893 29.0677 185.69C29.971 185.589 41.3977 184.387 59.7399 185.591C68.6607 186.192 75.4764 177.97 73.272 169.347C70.9665 160.222 69.9658 151.596 69.8656 144.276C69.6655 133.548 78.2843 124.826 88.9087 124.725H89.1101C99.6349 124.725 108.157 133.147 108.357 143.675C108.458 150.895 112.065 213.265 185.94 217.678C189.047 217.678 191.955 215.872 193.158 213.064C206.791 181.579 234.857 156.611 271.143 147.687C291.492 142.673 312.342 143.173 331.889 148.989C336.6 150.393 341.31 152.2 346.122 154.406C353.74 157.915 362.763 155.709 367.675 148.89C369.078 146.985 370.58 144.979 371.983 142.974C396.241 108.079 358.05 61.151 357.649 60.6497C350.833 52.4274 351.937 40.2953 360.156 33.4768Z" fill="url(#paint0_linear_39_38)"/>
<path d="M290.362 217.249C314.442 211.305 338.242 223.834 343.521 245.234C348.8 266.633 333.559 288.8 309.479 294.745C285.4 300.689 261.6 288.159 256.321 266.76C251.041 245.361 266.283 223.194 290.362 217.249Z" fill="url(#paint1_linear_39_38)"/>
<defs>
<linearGradient id="paint0_linear_39_38" x1="158.185" y1="84.2016" x2="402.288" y2="562.073" gradientUnits="userSpaceOnUse">
<stop stop-color="#CA8A04"/>
<stop offset="0.387488" stop-color="#FDDB95"/>
<stop offset="1" stop-color="#694700"/>
</linearGradient>
<linearGradient id="paint1_linear_39_38" x1="158.185" y1="84.2016" x2="402.288" y2="562.073" gradientUnits="userSpaceOnUse">
<stop stop-color="#CA8A04"/>
<stop offset="0.387488" stop-color="#FDDB95"/>
<stop offset="1" stop-color="#694700"/>
</linearGradient>
</defs>
</svg>
